{"title":"Gudda Gudda ft Lil Wayne - I Don't Like The Loo Of It {Willy Wo","uid":5899461,"size":146440812,"categoryP":"video","categoryS":"music_videos","magnet":"?xt=urn:btih:5ae278192852332610013d3b141a5477e19fa14d&amp;dn=Gudda+Gudda+ft+Lil+Wayne+-+I+Don%5C%27t+Like+The+Loo+Of+It+%7BWilly+Wo&amp;tr=udp%3A%2F%2Ftracker.openbittorrent.com%3A80&amp;tr=udp%3A%2F%2Fopen.demonii.com%3A1337&amp;tr=udp%3A%2F%2Ftracker.coppersurfer.tk%3A6969&amp;tr=udp%3A%2F%2Fexodus.desync.com%3A6969","seeders":1,"leechers":0,"uploader":"KingPinMan","files":7,"time":1287633260,"description":"Two Videos One In MKV and One In MPEG Format\n\n\n[img]http://img230.imageshack.us/img230/7696/guddalookofit2.png[/img]\n\n[code]General\nComplete name                    : Gudda Gudda ft Lil Wayne - I Dont Like The Look Of It [KingPinVideos].mpg\nFormat                           : MPEG-PS\nFile size                        : 67.9 MiB\nDuration                         : 3mn 19s\nOverall bit rate                 : 2 856 Kbps\nWriting library                  : encoded by TMPGEnc 4.0 XPress Version. 4.7.4.299\n\nVideo\nID                               : 224 (0xE0)\nFormat                           : MPEG Video\nFormat version                   : Version 1\nFormat settings, BVOP            : Yes\nFormat settings, Matrix          : Default\nDuration                         : 3mn 19s\nBit rate mode                    : Constant\nBit rate                         : 2 615 Kbps\nNominal bit rate                 : 2 700 Kbps\nWidth                            : 384 pixels\nHeight                           : 208 pixels\nDisplay aspect ratio             : 16:9\nFrame rate                       : 29.970 fps\nResolution                       : 8 bits\nScan type                        : Progressive\nBits/(Pixel*Frame)               : 1.092\nStream size                      : 62.2 MiB (92%)\nWriting library                  : TMPGEnc XPress 4.7.4.299\n\nAudio\nID                               : 192 (0xC0)\nFormat                           : MPEG Audio\nFormat version                   : Version 1\nFormat profile                   : Layer 2\nDuration                         : 3mn 19s\nBit rate mode                    : Constant\nBit rate                         : 128 Kbps\nChannel(s)                       : 2 channels\nSampling rate                    : 48.0 KHz\nStream size                      : 3.04 MiB (4%)[/code]\n\nAND\n\n[color=&quot;#FFA500&quot;][b]DOWNLOAD I DONT LIKE THE LOOK OF IT IN MKV FORMAT WITH BIGGER BETTER RESOLUTION[/b][[/color]\n\n[code]General\nComplete name                    : Gudda Gudda ft Lil Wayne - I Dont Like The Look Of It [KingPinMKVideos].mkv\nFormat                           : Matroska\nFile size                        : 71.7 MiB\nDuration                         : 3mn 19s\nOverall bit rate                 : 3 011 Kbps\nEncoded date                     : UTC 2010-10-20 22:48:11\nWriting application              : mkvmerge v4.0.0 ('The Stars were mine') built on Jun  6 2010 16:18:42\nWriting library                  : libebml v1.0.0 + libmatroska v1.0.0\n\nVideo\nID                               : 1\nFormat                           : AVC\nFormat/Info                      : Advanced Video Codec\nFormat profile                   : &lt;a class=&quot;__cf_email__&quot; href=&quot;/cdn-cgi/l/email-protection&quot; data-cfemail=&quot;d499b5bdba9498e0fae5&quot;&gt;[email&amp;#160;protected]&lt;/a&gt;&lt;script cf-hash='f9e31' type=&quot;text/javascript&quot;&gt;\n/* &lt;![CDATA[ */!function(){try{var t=&quot;currentScript&quot;in document?document.currentScript:function(){for(var t=document.getElementsByTagName(&quot;script&quot;),e=t.length;e--;)if(t[e].getAttribute(&quot;cf-hash&quot;))return t[e]}();if(t&amp;&amp;t.previousSibling){var e,r,n,i,c=t.previousSibling,a=c.getAttribute(&quot;data-cfemail&quot;);if(a){for(e=&quot;&quot;,r=parseInt(a.substr(0,2),16),n=2;a.length-n;n+=2)i=parseInt(a.substr(n,2),16)^r,e+=String.fromCharCode(i);e=document.createTextNode(e),c.parentNode.replaceChild(e,c)}}}catch(u){}}();/* ]]&gt; */&lt;/script&gt;\nFormat settings, CABAC           : Yes\nFormat settings, ReFrames        : 4 frames\nMuxing mode                      : Container profile=&lt;a class=&quot;__cf_email__&quot; href=&quot;/cdn-cgi/l/email-protection&quot; data-cfemail=&quot;42172c292c2d352c02766c73&quot;&gt;[email&amp;#160;protected]&lt;/a&gt;&lt;script cf-hash='f9e31' type=&quot;text/javascript&quot;&gt;\n/* &lt;![CDATA[ */!function(){try{var t=&quot;currentScript&quot;in document?document.currentScript:function(){for(var t=document.getElementsByTagName(&quot;script&quot;),e=t.length;e--;)if(t[e].getAttribute(&quot;cf-hash&quot;))return t[e]}();if(t&amp;&amp;t.previousSibling){var e,r,n,i,c=t.previousSibling,a=c.getAttribute(&quot;data-cfemail&quot;);if(a){for(e=&quot;&quot;,r=parseInt(a.substr(0,2),16),n=2;a.length-n;n+=2)i=parseInt(a.substr(n,2),16)^r,e+=String.fromCharCode(i);e=document.createTextNode(e),c.parentNode.replaceChild(e,c)}}}catch(u){}}();/* ]]&gt; */&lt;/script&gt;\nCodec ID                         : V_MPEG4/ISO/AVC\nDuration                         : 3mn 19s\nBit rate                         : 2 791 Kbps\nNominal bit rate                 : 2 839 Kbps\nWidth                            : 576 pixels\nHeight                           : 324 pixels\nDisplay aspect ratio             : 16:9\nFrame rate                       : 23.976 fps\nResolution                       : 8 bits\nColorimetry                      : 4:2:0\nScan type                        : Progressive\nBits/(Pixel*Frame)               : 0.624\nStream size                      : 66.4 MiB (93%)\nWriting library                  : x264 core 98 r1649 20cbe10\n\nAudio\nID                               : 2\nFormat                           : AC-3\nFormat/Info                      : Audio Coding 3\nCodec ID                         : A_AC3\nDuration                         : 3mn 19s\nBit rate mode                    : Constant\nBit rate                         : 160 Kbps\nChannel(s)                       : 2 channels\nChannel positions                : L R\nSampling rate                    : 44.1 KHz\nStream size                      : 3.81 MiB (5%)[/code]","torrent":{"xt":"urn:btih:5ae278192852332610013d3b141a5477e19fa14d","amp;dn":"Gudda+Gudda+ft+Lil+Wayne+-+I+Don%5C%27t+Like+The+Loo+Of+It+%7BWilly+Wo","amp;tr":["udp%3A%2F%2Ftracker.openbittorrent.com%3A80","udp%3A%2F%2Fopen.demonii.com%3A1337","udp%3A%2F%2Ftracker.coppersurfer.tk%3A6969","udp%3A%2F%2Fexodus.desync.com%3A6969"],"infoHash":"5ae278192852332610013d3b141a5477e19fa14d","infoHashBuffer":{"type":"Buffer","data":[90,226,120,25,40,82,51,38,16,1,61,59,20,26,84,119,225,159,161,77]},"announce":[],"urlList":[]}}